<svg width="192" height="224" viewBox="0 0 192 224" fill="none" xmlns="http://www.w3.org/2000/svg">
<g filter="url(#filter0_d_3_1598)">
<circle cx="95.9994" cy="119.653" r="84.9994" fill="white"/>
</g>
<path fill-rule="evenodd" clip-rule="evenodd" d="M45.5815 188.094C23.638 171.898 9.86471 145.45 11.0736 116.149C11.3222 110.123 12.1924 104.269 13.6198 98.6474C14.4914 98.9717 15.3886 99.3728 16.2994 99.8663C23.3688 103.687 18.98 113.523 18.98 113.523C18.98 113.523 35.747 110.55 47.1354 122.773C58.5503 134.93 43.6152 148.305 43.6152 148.305C43.6152 148.305 45.6537 148.965 50.4491 157.327C55.1783 165.663 42.7037 176.72 42.7037 176.72C42.7037 176.72 44.0398 175.489 47.5889 179.669C49.0207 181.356 47.6849 184.702 45.5815 188.094Z" fill="#0070F0" fill-opacity="0.5"/>
<path fill-rule="evenodd" clip-rule="evenodd" d="M25.6101 167.307C15.7488 152.765 10.2937 135.05 11.0736 116.148C11.1557 114.158 11.3057 112.186 11.5211 110.236C14.6097 111.811 17.7561 113.998 20.6479 117.03C32.1156 129.055 18.3824 137.691 18.3824 137.691C18.3824 137.691 24.8007 136.417 28.0104 149.518C30.2765 158.767 27.4613 164.648 25.6101 167.307Z" fill="#0070F0" fill-opacity="0.5"/>
<path fill-rule="evenodd" clip-rule="evenodd" d="M179.613 135.007C172.131 176.046 135.368 206.349 92.4976 204.58C82.1315 204.153 72.2758 201.886 63.2322 198.107C66.2038 190.466 73.5107 181.693 91.4486 182.855C91.4486 182.855 80.6043 164.042 98.8578 157.255C117.111 150.402 126.811 165.789 126.811 165.789C126.811 165.789 125.396 154.769 136.779 154.097C136.779 154.097 132.199 130.177 161.903 131.051C161.903 131.051 172.605 131.051 179.613 135.007Z" fill="#0070F0" fill-opacity="0.5"/>
<path opacity="0.32" d="M162.411 76.0726C161.975 76.0726 161.594 76.454 161.594 76.8899C161.594 77.0534 161.648 77.1624 161.703 77.2713L140.344 103.479L140.78 103.806L162.084 77.6528C162.193 77.7072 162.302 77.7072 162.411 77.7072C162.847 77.7072 163.228 77.3258 163.228 76.8899C163.228 76.454 162.847 76.0726 162.411 76.0726Z" fill="url(#paint0_linear_3_1598)"/>
<path opacity="0.63" d="M152.957 101.307C152.576 101.307 152.303 101.579 152.303 101.961C152.303 102.07 152.358 102.179 152.358 102.288L118.031 144.406L118.358 144.678L152.685 102.56C152.739 102.615 152.848 102.615 152.957 102.615C153.339 102.615 153.611 102.342 153.611 101.961C153.611 101.579 153.339 101.307 152.957 101.307Z" fill="url(#paint1_linear_3_1598)"/>
<path opacity="0.65" fill-rule="evenodd" clip-rule="evenodd" d="M178.477 99.004L151.983 131.551L151.492 131.17L178.294 98.2826C178.356 98.5227 178.417 98.7631 178.477 99.004Z" fill="url(#paint2_linear_3_1598)"/>
<path opacity="0.63" d="M87.2507 41.3495C86.7604 41.3495 86.3245 41.7854 86.3245 42.2758C86.3245 42.4392 86.3789 42.6027 86.4334 42.7117L37.6133 102.702L38.1037 103.083L86.9238 43.1476C87.0328 43.202 87.1418 43.202 87.3052 43.202C87.7956 43.202 88.2315 42.7661 88.2315 42.2758C88.2315 41.7854 87.7956 41.3495 87.2507 41.3495Z" fill="url(#paint3_linear_3_1598)"/>
<path opacity="0.35" d="M76.2489 34.8881C75.813 34.8881 75.4861 35.215 75.4861 35.6509C75.4861 35.7598 75.5406 35.8688 75.5951 35.9778L53.6914 62.8398L54.0728 63.1667L75.922 36.3592C76.031 36.4137 76.14 36.4137 76.2489 36.4137C76.6848 36.4137 77.0118 36.0868 77.0118 35.6509C77.0118 35.215 76.6848 34.8881 76.2489 34.8881Z" fill="url(#paint4_linear_3_1598)"/>
<path opacity="0.63" fill-rule="evenodd" clip-rule="evenodd" d="M11.0364 117.517C11.0461 117.134 11.0584 116.751 11.0733 116.367L46.9392 72.3364L46.9392 72.3364C46.8847 72.1729 46.8302 72.0095 46.8302 71.846C46.8302 71.2467 47.3206 70.8108 47.8654 70.8108C48.4103 70.8108 48.9007 71.2467 48.9007 71.846C48.9007 72.4454 48.4103 72.8813 47.8654 72.8813C47.7565 72.8813 47.593 72.8268 47.484 72.7723L11.0364 117.517Z" fill="url(#paint5_linear_3_1598)"/>
<path opacity="0.9" fill-rule="evenodd" clip-rule="evenodd" d="M83.4553 203.729C83.2029 203.692 82.9509 203.654 82.6992 203.614L128.753 147.038C128.699 146.929 128.644 146.765 128.644 146.602C128.644 146.057 129.08 145.621 129.625 145.621C130.17 145.621 130.606 146.057 130.606 146.602C130.606 147.147 130.17 147.582 129.625 147.582C129.516 147.582 129.353 147.582 129.244 147.528L83.4553 203.729Z" fill="url(#paint6_linear_3_1598)"/>
<path d="M167.397 12.3301L167.397 12.3302L167.401 12.3291C168.915 11.9873 170.342 13.1581 170.342 14.7364C170.342 17.5367 170.233 21.8021 169.704 26.1872C169.174 30.5781 168.225 35.0617 166.558 38.3146C165.483 40.3981 163.316 43.3588 160.487 46.7591C157.661 50.1546 154.188 53.9738 150.51 57.7707C143.151 65.3682 134.991 72.8594 129.591 76.6861L129.589 76.6875C128.708 77.3233 127.481 77.275 126.648 76.589L126.647 76.5881L115.751 67.7076C115.751 67.7075 115.751 67.7074 115.75 67.7073C114.917 67.0211 114.621 65.8418 115.064 64.8068C117.669 58.7284 123.324 49.2102 129.261 40.4623C132.227 36.0905 135.261 31.9162 138.014 28.4655C140.771 25.01 143.234 22.2958 145.062 20.831L145.063 20.8302C147.885 18.5455 152.084 16.7052 156.285 15.2912C160.48 13.8793 164.651 12.9011 167.397 12.3301Z" fill="white" stroke="#0070F0" stroke-width="0.538457"/>
<path d="M127.02 43.2336L132.577 47.756L133.394 46.7207L127.728 42.0894C127.51 42.5252 127.237 42.9067 127.02 43.2336Z" fill="#0070F0"/>
<path d="M169.627 12.6111C169.137 17.406 167.502 30.1559 162.653 38.2744C157.15 47.5372 129.416 70.912 124.458 75.1075L126.419 76.6876C127.346 77.4504 128.708 77.5049 129.688 76.7966C140.531 69.2229 162.435 46.8833 166.74 38.4379C170.118 31.845 170.554 20.3483 170.554 14.7361C170.608 13.8643 170.227 13.156 169.627 12.6111Z" fill="#0070F0"/>
<path d="M140.259 53.2038C139.224 54.457 137.426 54.6204 136.172 53.6397C134.919 52.6044 134.756 50.8064 135.736 49.5532C136.772 48.3 138.57 48.1365 139.823 49.1173C141.131 50.098 141.294 51.9506 140.259 53.2038Z" fill="#0070F0"/>
<path d="M151.917 41.9803C156.16 41.9803 159.599 38.5406 159.599 34.2976C159.599 30.0546 156.16 26.615 151.917 26.615C147.674 26.615 144.234 30.0546 144.234 34.2976C144.234 38.5406 147.674 41.9803 151.917 41.9803Z" fill="#0070F0"/>
<path d="M151.921 40.7263C155.472 40.7263 158.351 37.8477 158.351 34.2968C158.351 30.7459 155.472 27.8674 151.921 27.8674C148.37 27.8674 145.492 30.7459 145.492 34.2968C145.492 37.8477 148.37 40.7263 151.921 40.7263Z" fill="white"/>
<path d="M134.76 58.2162C134.107 58.979 132.962 59.088 132.2 58.4886C131.437 57.8348 131.328 56.6905 131.927 55.9277C132.581 55.1649 133.725 55.0559 134.488 55.6553C135.305 56.3091 135.414 57.4534 134.76 58.2162Z" fill="#0070F0"/>
<path d="M115.955 62.7944C115.515 63.7059 115.197 63.9092 114.866 64.7015C114.623 65.2826 115.05 65.8289 114.866 66.3361L115.411 67.6874L127.943 77.2334C129.032 76.5796 130.34 76.4706 131.702 75.3809L115.955 62.7944Z" fill="url(#paint7_linear_3_1598)"/>
<path d="M115.791 62.4126C115.401 63.2206 115.054 63.9858 114.749 64.701C114.458 65.3845 114.962 65.7499 114.749 66.3357L115.41 67.76L126.388 76.6881L127.942 77.233C128.554 76.8658 129.272 77.1928 129.977 76.6881C130.528 76.2941 131.104 75.8582 131.701 75.3805L115.791 62.4126Z" fill="#0070F0"/>
<path d="M127.89 72.2747C126.364 73.5824 125.22 74.5632 124.512 75.1625L125.166 75.7074L126.473 76.7426L127.399 77.233C127.944 77.233 128.489 77.5055 129.797 76.8516C130.124 76.6337 130.396 76.4157 130.723 76.1978C130.723 76.1978 130.778 76.1978 130.778 76.1433C130.996 75.9798 131.214 75.8164 131.377 75.6529C131.486 75.5439 131.595 75.4894 131.704 75.435L131.758 75.3805L127.89 72.2747Z" fill="#0070F0"/>
<path d="M120.046 55.4373C120.046 55.4373 116.995 53.6392 115.578 50.2065L112.473 54.0206C112.473 54.0206 117.322 57.5623 117.594 59.9052C118.303 58.4885 119.12 57.0174 120.046 55.4373Z" fill="#0070F0"/>
<path d="M126.477 76.7968C127.403 77.5596 128.765 77.6141 129.746 76.9058C140.589 69.2232 162.438 46.8836 166.797 38.4381L126.477 76.7968ZM126.477 76.7968L115.58 67.9155L126.477 76.7968ZM166.438 38.2537C165.37 40.3232 163.212 43.2741 160.383 46.673C157.561 50.0653 154.089 53.8819 150.413 57.677C143.056 65.2728 134.903 72.7569 129.513 76.5763L129.51 76.5784C128.68 77.1778 127.52 77.1327 126.734 76.4851L126.732 76.4838L115.836 67.6037C115.836 67.6035 115.836 67.6032 115.835 67.6029C115.049 66.9549 114.768 65.84 115.188 64.8598C117.788 58.7935 123.437 49.2838 129.372 40.5379C132.337 36.1681 135.369 31.9968 138.119 28.5495C140.875 25.0949 143.331 22.3908 145.146 20.9361L145.148 20.9348C147.951 18.6657 152.131 16.8315 156.328 15.4188C160.516 14.0092 164.681 13.0323 167.424 12.4619L167.424 12.462L167.431 12.4604C168.857 12.1384 170.207 13.2408 170.207 14.7364C170.207 17.5338 170.099 21.7933 169.57 26.1711C169.04 30.5579 168.094 35.0224 166.438 38.2537Z" stroke="#0070F0" stroke-width="0.807685"/>
<path d="M114.239 53.8833L114.239 53.8836C113.725 54.8335 112.648 56.0773 111.137 57.5607C109.696 58.9759 107.89 60.5817 105.87 62.3209L99.2034 56.8668C100.502 54.5864 101.72 52.5093 102.823 50.8157C103.98 49.0386 104.988 47.7221 105.81 47.0286L105.81 47.0286L105.812 47.0266C106.913 46.083 108.452 45.2302 110.069 44.5296L110.069 44.5296L110.071 44.5285C111.792 43.7693 113.427 44.0826 114.502 44.962L114.502 44.9621L114.509 44.9675C115.629 45.8447 116.239 47.3712 115.834 49.1932L115.834 49.1945C115.456 50.9214 114.921 52.6233 114.239 53.8833Z" fill="white" stroke="#0070F0" stroke-width="0.807685"/>
<path d="M99.7736 55.1104C99.4467 55.7097 99.0652 56.3636 98.6838 56.9629L105.876 62.8475C106.421 62.3571 106.966 61.8667 107.511 61.4309L99.7736 55.1104Z" fill="#0070F0"/>
<path d="M143.47 54.948L142.653 55.9832L148.21 60.5056C148.537 60.1787 148.81 59.8518 149.137 59.5794L143.47 54.948Z" fill="#0070F0"/>
<path d="M130.549 66.411L130.549 66.4123C130.171 68.1375 129.637 69.8378 128.955 71.0975C128.413 72.0516 127.32 73.2968 125.811 74.7785C124.37 76.1936 122.577 77.7988 120.583 79.5373L113.918 74.0845C115.217 71.8041 116.434 69.727 117.537 68.0335C118.695 66.2563 119.702 64.9398 120.524 64.2463L120.524 64.2463L120.527 64.2443C121.627 63.3007 123.166 62.448 124.783 61.7473L124.783 61.7474L124.786 61.7463C126.507 60.9871 128.142 61.3004 129.216 62.1797L129.216 62.1798L129.223 62.1852C130.344 63.0624 130.954 64.5889 130.549 66.411Z" fill="white" stroke="#0070F0" stroke-width="0.807685"/>
<path d="M128.651 67.2066C126.69 70.9117 119.389 75.6521 116.991 77.1777L120.587 80.12C124.783 76.4694 128.161 73.3091 129.251 71.3476C129.959 70.0399 130.504 68.2964 130.885 66.5528C131.212 65.1361 130.94 63.8829 130.34 62.9022C130.177 63.8829 129.687 65.2451 128.651 67.2066Z" fill="#0070F0"/>
<path d="M114.488 72.3286C114.161 72.928 113.78 73.5818 113.398 74.1812L120.591 80.0657C121.136 79.5754 121.68 79.085 122.225 78.6491L114.488 72.3286Z" fill="#0070F0"/>
<path d="M51.3879 128.722L45.2854 123.764L99.2818 57.4538L105.384 62.4121L51.3879 128.722Z" fill="url(#paint8_linear_3_1598)"/>
<path d="M38.3681 179.941L32.2656 174.982L113.996 74.6721L120.044 79.6304L38.3681 179.941Z" fill="url(#paint9_linear_3_1598)"/>
<path d="M137.752 69.8224C137.752 69.8224 140.149 72.4378 143.8 73.1461L140.694 76.9602C140.694 76.9602 136.226 72.9281 133.883 73.0916C135.136 72.1108 136.39 70.9666 137.752 69.8224Z" fill="#0070F0"/>
<path d="M144.616 72.6451L144.616 72.6451L144.618 72.644C146.349 71.8806 147.976 72.1511 149.041 73.0705L149.041 73.0706L149.049 73.0775C150.121 73.9547 150.734 75.4871 150.38 77.3146C150.004 79.0338 149.47 80.6832 148.785 82.0019C148.27 82.9516 147.193 84.1945 145.691 85.6768C144.256 87.0916 142.464 88.6965 140.47 90.435L133.805 84.9822C135.103 82.7025 136.308 80.6378 137.398 78.9504C138.541 77.1819 139.536 75.8632 140.361 75.1407C141.462 74.1976 143 73.3454 144.616 72.6451Z" fill="white" stroke="#0070F0" stroke-width="0.807685"/>
<path d="M142.054 89.5465C141.51 90.0369 141.074 90.3638 140.474 90.8542L133.228 85.0786C133.609 84.4247 133.936 83.8254 134.317 83.226L142.054 89.5465Z" fill="#0070F0"/>
<path d="M70.1335 163.648L76.2361 168.606L139.877 90.5267L133.774 85.5684L70.1335 163.648Z" fill="url(#paint10_linear_3_1598)"/>
<path d="M167.34 12.0665C165.215 12.5024 162.273 13.2107 159.167 14.137L170.283 23.1818C170.555 19.9126 170.609 16.9158 170.609 14.7364C170.609 12.9928 169.029 11.6851 167.34 12.0665Z" fill="#0070F0"/>
<path d="M130.724 76.0885C130.67 76.143 130.67 76.143 130.724 76.0885C130.888 75.9795 131.106 75.8161 131.324 75.5981C131.106 75.8161 130.888 75.9795 130.724 76.0885Z" fill="url(#paint11_linear_3_1598)"/>
<path d="M125.658 76.089L126.421 76.6884L125.114 75.6531L125.658 76.089Z" fill="url(#paint12_linear_3_1598)"/>
<path d="M170.117 14.6154C170.117 14.5646 170.117 14.5138 170.117 14.463C170.117 14.4122 170.117 14.3613 170.117 14.3105C170.117 14.2597 170.063 14.2089 170.063 14.1073C170.063 14.0564 170.063 14.0564 170.063 14.0056C170.063 13.9548 170.008 13.8532 169.954 13.8024V13.7515C169.899 13.6499 169.845 13.5991 169.845 13.5483C169.79 13.4466 169.736 13.3958 169.681 13.345C169.572 13.1926 169.409 13.0909 169.3 12.9385C169.082 14.7679 168.701 17.8169 167.992 21.2724L169.899 22.7461C169.954 22.3904 169.954 21.9838 170.008 21.6281C170.063 20.8659 170.117 20.1544 170.117 19.4938V19.443C170.172 18.7824 170.172 18.1218 170.172 17.512C170.172 17.4612 170.172 17.4103 170.172 17.4103C170.172 17.1054 170.172 16.8514 170.172 16.5465C170.172 16.2924 170.172 16.0383 170.172 15.7842C170.172 15.7334 170.172 15.6826 170.172 15.6318C170.172 15.3777 170.172 15.1744 170.172 14.9711C170.117 14.8187 170.117 14.7171 170.117 14.6154Z" fill="#0070F0"/>
<path d="M150.226 73.7998C149.954 75.2165 149.191 77.8318 146.848 80.8831C144.396 84.0978 139.928 87.0401 137.422 88.5112L140.473 90.9631C144.669 87.3125 148.047 84.1523 149.137 82.1908C149.845 80.8831 150.39 79.1395 150.771 77.3959C151.044 76.0338 150.826 74.7806 150.226 73.7998Z" fill="#0070F0"/>
<path d="M141.298 90.0368C141.516 89.8189 141.625 89.7099 141.843 89.492C141.843 89.492 142.061 89.492 142.116 89.492L139.391 87.3125C138.683 87.7484 138.029 88.0753 137.484 88.4022L140.481 90.8541C140.754 90.6362 141.026 90.2548 141.298 90.0368C141.244 90.0368 141.244 89.9824 141.298 90.0368Z" fill="#0070F0"/>
<path d="M120.639 80.0658C121.184 79.5754 121.729 79.085 122.274 78.6491L118.95 75.9248C118.187 76.4152 117.534 76.8511 117.098 77.1235L120.639 80.0658Z" fill="#0070F0"/>
<path d="M113.943 50.0444C112.472 53.4771 105.443 58.3809 102.664 60.2335L105.933 62.9033C110.129 59.2527 113.507 56.0925 114.597 54.1309C115.305 52.8233 115.85 51.0797 116.231 49.3361C116.558 47.8105 116.231 46.4483 115.468 45.4131C115.251 46.3938 114.815 47.9194 113.943 50.0444Z" fill="#0070F0"/>
<path d="M106.594 61.8872C106.812 61.7238 106.943 61.5287 107.161 61.3653C107.161 61.3653 107.244 61.2671 107.433 61.3765L104.572 58.9795C103.863 59.4699 103.209 59.9058 102.773 60.2327L105.744 62.6701C106.016 62.4522 106.322 62.1052 106.594 61.8872C106.54 61.9417 106.54 61.8327 106.594 61.8872Z" fill="#0070F0"/>
<path d="M114.243 53.8838L114.243 53.8841C113.729 54.834 112.652 56.0779 111.141 57.5612C109.7 58.9764 107.894 60.5822 105.874 62.3215L99.2076 56.8673C100.506 54.5869 101.724 52.5098 102.827 50.8162C103.984 49.0391 104.992 47.7226 105.814 47.0291L105.814 47.0291L105.816 47.0271C106.917 46.0835 108.456 45.2308 110.073 44.5301L110.073 44.5301L110.075 44.5291C111.796 43.7699 113.431 44.0831 114.506 44.9625L114.506 44.9626L114.513 44.968C115.634 45.8452 116.243 47.3717 115.839 49.1937L115.838 49.195C115.46 50.9219 114.926 52.6238 114.243 53.8838Z" stroke="#0070F0" stroke-width="0.807685"/>
<path d="M130.549 66.411L130.549 66.4123C130.171 68.1375 129.637 69.8378 128.955 71.0975C128.413 72.0516 127.32 73.2968 125.811 74.7785C124.37 76.1936 122.577 77.7988 120.583 79.5373L113.918 74.0845C115.217 71.8041 116.434 69.727 117.537 68.0335C118.695 66.2563 119.702 64.9398 120.524 64.2463L120.524 64.2463L120.527 64.2443C121.627 63.3007 123.166 62.448 124.783 61.7473L124.783 61.7474L124.786 61.7463C126.507 60.9871 128.142 61.3004 129.216 62.1797L129.216 62.1798L129.223 62.1852C130.344 63.0624 130.954 64.5889 130.549 66.411Z" stroke="#0070F0" stroke-width="0.807685"/>
<path d="M144.612 72.6451L144.612 72.6451L144.614 72.644C146.345 71.8806 147.972 72.1511 149.037 73.0705L149.037 73.0706L149.045 73.0775C150.117 73.9547 150.73 75.4871 150.376 77.3146C150 79.0338 149.466 80.6832 148.78 82.0019C148.266 82.9516 147.189 84.1945 145.687 85.6768C144.252 87.0916 142.46 88.6965 140.466 90.435L133.801 84.9822C135.099 82.7025 136.304 80.6378 137.394 78.9504C138.537 77.1819 139.532 75.8632 140.357 75.1407C141.457 74.1976 142.996 73.3454 144.612 72.6451Z" stroke="#0070F0" stroke-width="0.807685"/>
<defs>
<filter id="filter0_d_3_1598" x="0.230866" y="31.9616" width="191.537" height="191.537" filterUnits="userSpaceOnUse" color-interpolation-filters="sRGB">
<feFlood flood-opacity="0" result="BackgroundImageFix"/>
<feColorMatrix in="SourceAlpha" type="matrix" values="0 0 0 0 0 0 0 0 0 0 0 0 0 0 0 0 0 0 127 0" result="hardAlpha"/>
<feOffset dy="8.07685"/>
<feGaussianBlur stdDeviation="5.38457"/>
<feColorMatrix type="matrix" values="0 0 0 0 0 0 0 0 0 0 0 0 0 0 0 0 0 0 0.04 0"/>
<feBlend mode="normal" in2="BackgroundImageFix" result="effect1_dropShadow_3_1598"/>
<feBlend mode="normal" in="SourceGraphic" in2="effect1_dropShadow_3_1598" result="shape"/>
</filter>
<linearGradient id="paint0_linear_3_1598" x1="140.33" y1="89.9673" x2="163.234" y2="89.9673" gradientUnits="userSpaceOnUse">
<stop offset="0.2849" stop-color="#0070F0" stop-opacity="0"/>
<stop offset="1" stop-color="white"/>
</linearGradient>
<linearGradient id="paint1_linear_3_1598" x1="118.077" y1="122.986" x2="153.636" y2="122.986" gradientUnits="userSpaceOnUse">
<stop offset="0.2849" stop-color="#0070F0" stop-opacity="0"/>
<stop offset="1" stop-color="white"/>
</linearGradient>
<linearGradient id="paint2_linear_3_1598" x1="151.493" y1="100.83" x2="201.942" y2="100.83" gradientUnits="userSpaceOnUse">
<stop offset="0.2849" stop-color="#0070F0" stop-opacity="0"/>
<stop offset="1" stop-color="white"/>
</linearGradient>
<linearGradient id="paint3_linear_3_1598" x1="37.5889" y1="72.2263" x2="88.2057" y2="72.2263" gradientUnits="userSpaceOnUse">
<stop offset="0.2849" stop-color="#0070F0" stop-opacity="0"/>
<stop offset="1" stop-color="white"/>
</linearGradient>
<linearGradient id="paint4_linear_3_1598" x1="53.721" y1="49.0124" x2="77.0273" y2="49.0124" gradientUnits="userSpaceOnUse">
<stop offset="0.2849" stop-color="#0070F0" stop-opacity="0"/>
<stop offset="1" stop-color="white"/>
</linearGradient>
<linearGradient id="paint5_linear_3_1598" x1="-6.67968" y1="104.685" x2="48.8947" y2="104.685" gradientUnits="userSpaceOnUse">
<stop offset="0.2849" stop-color="#0070F0" stop-opacity="0"/>
<stop offset="1" stop-color="white"/>
</linearGradient>
<linearGradient id="paint6_linear_3_1598" x1="77.4792" y1="178.045" x2="130.601" y2="178.045" gradientUnits="userSpaceOnUse">
<stop offset="0.2849" stop-color="#0070F0" stop-opacity="0"/>
<stop offset="1" stop-color="white"/>
</linearGradient>
<linearGradient id="paint7_linear_3_1598" x1="114.263" y1="62.5522" x2="131.566" y2="79.527" gradientUnits="userSpaceOnUse">
<stop stop-color="#0070F0"/>
<stop offset="1" stop-color="#0070F0"/>
</linearGradient>
<linearGradient id="paint8_linear_3_1598" x1="68.9976" y1="130.695" x2="84.2745" y2="61.8587" gradientUnits="userSpaceOnUse">
<stop offset="0.2097" stop-color="#0070F0" stop-opacity="0"/>
<stop offset="0.871" stop-color="#0070F0"/>
</linearGradient>
<linearGradient id="paint9_linear_3_1598" x1="66.8987" y1="182.855" x2="89.6944" y2="81.2869" gradientUnits="userSpaceOnUse">
<stop offset="0.2097" stop-color="#0070F0" stop-opacity="0"/>
<stop offset="0.871" stop-color="#0070F0"/>
</linearGradient>
<linearGradient id="paint10_linear_3_1598" x1="97.6508" y1="170.905" x2="115.515" y2="90.7311" gradientUnits="userSpaceOnUse">
<stop offset="0.2097" stop-color="#0070F0" stop-opacity="0"/>
<stop offset="0.871" stop-color="#0070F0"/>
</linearGradient>
<linearGradient id="paint11_linear_3_1598" x1="115.802" y1="60.992" x2="133.102" y2="77.963" gradientUnits="userSpaceOnUse">
<stop stop-color="#0070F0"/>
<stop offset="1" stop-color="#0070F0"/>
</linearGradient>
<linearGradient id="paint12_linear_3_1598" x1="124.84" y1="73.5066" x2="126.629" y2="78.5876" gradientUnits="userSpaceOnUse">
<stop offset="0.00537634" stop-color="#0070F0"/>
<stop offset="1" stop-color="#0070F0"/>
</linearGradient>
</defs>
</svg>
